# Blender v2.79 (sub 0) OBJ File: ''
# www.blender.org
mtllib ball.mtl
o Icosphere
v 0.087622 -0.900436 0.269669
v 0.666526 -0.607870 0.278246
v -0.229395 -0.900435 0.166665
v -0.229395 -0.900435 -0.166665
v 0.087622 -0.900436 -0.269669
v 0.841771 -0.324318 0.278246
v -0.004506 -0.324319 0.886554
v -0.844558 -0.324317 0.269670
v -0.517454 -0.324319 -0.719888
v 0.524754 -0.324319 -0.714585
v 0.754150 -0.149073 0.547918
v -0.288058 -0.149073 0.886555
v -0.932181 -0.149072 0.000000
v -0.288058 -0.149073 -0.886555
v 0.754150 -0.149073 -0.547918
v 0.375678 0.607870 0.616880
v -0.470600 0.607870 0.547916
v -0.666526 0.607870 -0.278246
v 0.058658 0.607871 -0.719885
v 0.702782 0.607868 -0.166666
v 0.229395 0.900435 -0.166665
v 0.458792 0.742347 -0.333331
v 0.375678 0.607870 -0.616880
v -0.087622 0.900436 -0.269669
v -0.175245 0.742349 -0.539339
v -0.470600 0.607870 -0.547916
v -0.283548 0.900436 0.000000
v -0.567098 0.742348 0.000000
v -0.666526 0.607870 0.278246
v -0.087622 0.900436 0.269669
v -0.175245 0.742349 0.539339
v 0.058658 0.607871 0.719885
v 0.229395 0.900435 0.166665
v 0.458792 0.742347 0.333331
v 0.702782 0.607868 0.166666
v 0.844558 0.324317 -0.269670
v 0.742344 0.175245 -0.539342
v 0.517454 0.324319 -0.719888
v 0.004506 0.324319 -0.886554
v -0.283551 0.175246 -0.872676
v -0.524754 0.324319 -0.714585
v -0.841771 0.324318 -0.278246
v -0.917588 0.175245 0.000000
v -0.841771 0.324318 0.278246
v -0.524754 0.324319 0.714585
v -0.283551 0.175246 0.872676
v 0.004506 0.324319 0.886554
v 0.517454 0.324319 0.719888
v 0.742344 0.175245 0.539342
v 0.844558 0.324317 0.269670
v 0.288058 0.149073 -0.886555
v 0.283551 -0.175246 -0.872676
v -0.004506 -0.324319 -0.886554
v -0.754150 0.149073 -0.547918
v -0.742344 -0.175245 -0.539342
v -0.844558 -0.324317 -0.269670
v -0.754150 0.149073 0.547918
v -0.742344 -0.175245 0.539342
v -0.517454 -0.324319 0.719888
v 0.288058 0.149073 0.886555
v 0.283551 -0.175246 0.872676
v 0.524754 -0.324319 0.714585
v 0.932181 0.149072 0.000000
v 0.917588 -0.175245 0.000000
v 0.841771 -0.324318 -0.278246
v 0.470600 -0.607870 -0.547916
v 0.175245 -0.742349 -0.539339
v -0.058658 -0.607871 -0.719885
v -0.375678 -0.607870 -0.616881
v -0.458792 -0.742347 -0.333331
v -0.702782 -0.607868 -0.166666
v -0.702782 -0.607868 0.166666
v -0.458792 -0.742347 0.333331
v -0.375678 -0.607870 0.616880
v 0.666526 -0.607870 -0.278246
v 0.567098 -0.742348 0.000000
v 0.283548 -0.900436 0.000000
v -0.058658 -0.607871 0.719885
v 0.175245 -0.742349 0.539339
v 0.470600 -0.607870 0.547916
v -0.076057 -0.912881 0.234082
v 0.571514 -0.628404 0.415225
v -0.019171 -0.476287 0.816525
v 0.770638 -0.476286 0.270554
v 0.571514 -0.628404 -0.415225
v -0.246130 -0.912881 0.000000
v -0.782489 -0.476284 0.234083
v -0.076057 -0.912881 -0.234082
v -0.464427 -0.476286 -0.671854
v 0.495457 -0.476287 -0.649309
v 0.817647 -0.230153 0.415226
v 0.905556 0.230151 -0.144671
v -0.142238 -0.230153 0.905939
v 0.417421 0.230153 0.816527
v -0.905556 -0.230151 0.144671
v -0.647574 0.230153 0.649311
v -0.417421 -0.230153 -0.816527
v -0.817647 0.230153 -0.415226
v 0.647574 -0.230153 -0.649311
v 0.142238 0.230153 -0.905940
v 0.464427 0.476286 0.671854
v -0.495457 0.476287 0.649309
v -0.770638 0.476286 -0.270554
v 0.019171 0.476287 -0.816525
v 0.782489 0.476284 -0.234083
v 0.218295 0.628404 0.671853
v 0.246130 0.912881 0.000000
v -0.571514 0.628404 0.415225
v -0.571514 0.628404 -0.415225
v 0.218295 0.628404 -0.671853
v -0.218295 -0.628404 0.671853
v 0.199123 -0.912882 0.144670
v 0.495457 -0.476287 0.649309
v 0.770638 -0.476286 -0.270554
v 0.199123 -0.912882 -0.144670
v -0.706430 -0.628401 0.000000
v -0.464427 -0.476286 0.671854
v -0.218295 -0.628404 -0.671853
v -0.782489 -0.476284 -0.234083
v -0.019171 -0.476287 -0.816525
v 0.905556 0.230151 0.144671
v 0.817647 -0.230153 -0.415226
v 0.142238 0.230153 0.905940
v 0.647574 -0.230153 0.649311
v -0.817647 0.230153 0.415226
v -0.417421 -0.230153 0.816527
v -0.647574 0.230153 -0.649311
v -0.905556 -0.230151 -0.144671
v 0.417421 0.230153 -0.816527
v -0.142238 -0.230153 -0.905940
v 0.782489 0.476284 0.234083
v 0.019171 0.476287 0.816525
v -0.770638 0.476286 0.270554
v -0.495457 0.476287 -0.649309
v 0.464427 0.476286 -0.671854
v 0.076057 0.912881 0.234082
v 0.706430 0.628401 0.000000
v -0.199123 0.912882 0.144670
v -0.199123 0.912882 -0.144670
v 0.076057 0.912881 -0.234082
v 0.344093 0.836022 -0.249998
v 0.593873 0.681651 -0.249998
v 0.421279 0.681652 -0.487551
v -0.131434 0.836023 -0.404504
v -0.054250 0.681653 -0.642058
v -0.333509 0.681653 -0.551320
v -0.425323 0.836023 0.000000
v -0.627399 0.681652 -0.146814
v -0.627399 0.681652 0.146814
v -0.131434 0.836023 0.404504
v -0.333509 0.681653 0.551320
v -0.054250 0.681653 0.642058
v 0.344093 0.836022 0.249998
v 0.421279 0.681652 0.487551
v 0.593873 0.681651 0.249998
v 0.806537 0.256325 -0.404505
v 0.758834 0.006543 -0.551322
v 0.633943 0.256325 -0.642061
v -0.135478 0.256326 -0.892060
v -0.289849 0.006543 -0.892062
v -0.414740 0.256326 -0.801322
v -0.890266 0.256325 -0.146815
v -0.937971 0.006543 0.000000
v -0.890266 0.256325 0.146815
v -0.414740 0.256326 0.801322
v -0.289849 0.006543 0.892062
v -0.135478 0.256326 0.892060
v 0.633943 0.256325 0.642061
v 0.758834 0.006543 0.551322
v 0.806537 0.256325 0.404505
v 0.289849 -0.006543 -0.892062
v 0.414740 -0.256326 -0.801322
v 0.135478 -0.256326 -0.892060
v -0.758834 -0.006543 -0.551322
v -0.633943 -0.256325 -0.642061
v -0.806537 -0.256325 -0.404505
v -0.758834 -0.006543 0.551322
v -0.806537 -0.256325 0.404505
v -0.633943 -0.256325 0.642061
v 0.289849 -0.006543 0.892062
v 0.135478 -0.256326 0.892060
v 0.414740 -0.256326 0.801322
v 0.937971 -0.006543 0.000000
v 0.890266 -0.256325 0.146815
v 0.890266 -0.256325 -0.146815
v 0.333509 -0.681653 -0.551320
v 0.131434 -0.836023 -0.404504
v 0.054250 -0.681653 -0.642058
v -0.421279 -0.681652 -0.487551
v -0.344093 -0.836022 -0.249998
v -0.593873 -0.681651 -0.249998
v -0.593873 -0.681651 0.249998
v -0.344093 -0.836022 0.249998
v -0.421279 -0.681652 0.487551
v 0.627399 -0.681652 -0.146814
v 0.627399 -0.681652 0.146814
v 0.425323 -0.836023 0.000000
v 0.054250 -0.681653 0.642058
v 0.131434 -0.836023 0.404504
v 0.333509 -0.681653 0.551320
v 0.000000 -0.950218 0.000000
v 0.687584 -0.424955 0.499554
v -0.262629 -0.424955 0.808301
v -0.849899 -0.424952 0.000000
v -0.262629 -0.424955 -0.808301
v 0.687584 -0.424955 -0.499554
v 0.262629 0.424955 0.808301
v -0.687584 0.424955 0.499554
v -0.687584 0.424955 -0.499554
v 0.262629 0.424955 -0.808301
v 0.849899 0.424952 0.000000
v -0.000000 0.950218 0.000000
v -0.154464 -0.808806 0.475398
v 0.404399 -0.808806 0.293810
v 0.249936 -0.499873 0.769212
v 0.808800 -0.499872 0.000000
v 0.404399 -0.808806 -0.293810
v -0.499866 -0.808804 0.000000
v -0.654333 -0.499872 0.475399
v -0.154464 -0.808806 -0.475398
v -0.654333 -0.499872 -0.475399
v 0.249936 -0.499873 -0.769212
v 0.904269 -0.000000 0.293811
v 0.904269 -0.000000 -0.293811
v 0.000000 -0.000000 0.950803
v 0.558869 -0.000000 0.769216
v -0.904269 0.000000 0.293811
v -0.558869 0.000000 0.769216
v -0.558869 0.000000 -0.769216
v -0.904269 0.000000 -0.293811
v 0.558869 -0.000000 -0.769216
v 0.000000 0.000000 -0.950804
v 0.654333 0.499872 0.475399
v -0.249936 0.499873 0.769212
v -0.808800 0.499872 0.000000
v -0.249936 0.499873 -0.769212
v 0.654333 0.499872 -0.475399
v 0.154464 0.808806 0.475398
v 0.499866 0.808804 -0.000000
v -0.404399 0.808806 0.293810
v -0.404399 0.808806 -0.293810
v 0.154464 0.808806 -0.475398
vn 0.0992 -0.9471 0.3053
vn -0.0847 -0.9616 0.2609
vn 0.0000 -1.0000 0.0000
vn 0.2219 -0.9616 0.1612
vn 0.4253 -0.8506 0.3090
vn 0.1468 -0.8799 0.4519
vn -0.1625 -0.8506 0.5000
vn 0.7022 -0.6558 0.2770
vn 0.8185 -0.5059 0.2722
vn 0.7236 -0.4472 0.5257
vn 0.5966 -0.6754 0.4334
vn 0.6618 -0.7373 0.1356
vn 0.8506 -0.5257 0.0000
vn -0.2597 -0.9471 0.1887
vn -0.2743 -0.9616 0.0000
vn -0.3844 -0.8799 0.2793
vn -0.5257 -0.8506 0.0000
vn -0.2597 -0.9471 -0.1887
vn -0.0847 -0.9616 -0.2609
vn -0.3844 -0.8799 -0.2793
vn -0.1625 -0.8506 -0.5000
vn 0.0992 -0.9471 -0.3053
vn 0.2219 -0.9616 -0.1612
vn 0.1468 -0.8799 -0.4519
vn 0.4253 -0.8506 -0.3090
vn 0.9006 -0.3348 0.2770
vn 0.8709 -0.2315 0.4335
vn 0.9554 -0.2622 0.1356
vn 0.9510 0.0000 0.3090
vn 0.0149 -0.3348 0.9421
vn -0.1431 -0.2315 0.9622
vn -0.2764 -0.4472 0.8506
vn -0.0060 -0.5059 0.8626
vn 0.2629 -0.5257 0.8090
vn 0.1663 -0.2622 0.9506
vn 0.0000 0.0000 1.0000
vn -0.8914 -0.3348 0.3053
vn -0.9593 -0.2315 0.1612
vn -0.8944 -0.4472 0.0000
vn -0.8222 -0.5059 0.2609
vn -0.6882 -0.5257 0.5000
vn -0.8527 -0.2622 0.4519
vn -0.9510 0.0000 0.3090
vn -0.5658 -0.3348 -0.7534
vn -0.4498 -0.2315 -0.8626
vn -0.2764 -0.4472 -0.8506
vn -0.5022 -0.5059 -0.7013
vn -0.6882 -0.5257 -0.5000
vn -0.6933 -0.2622 -0.6713
vn -0.5878 0.0000 -0.8090
vn 0.5417 -0.3348 -0.7710
vn 0.6814 -0.2315 -0.6943
vn 0.7236 -0.4472 -0.5257
vn 0.5118 -0.5059 -0.6943
vn 0.2629 -0.5257 -0.8090
vn 0.4242 -0.2622 -0.8668
vn 0.5878 0.0000 -0.8090
vn 0.8014 -0.1364 0.5823
vn 0.6814 -0.2315 0.6943
vn 0.8086 0.0315 0.5875
vn 0.5878 0.0000 0.8090
vn -0.3061 -0.1364 0.9421
vn -0.4498 -0.2315 0.8626
vn -0.3088 0.0315 0.9506
vn -0.5878 0.0000 0.8090
vn -0.9906 -0.1364 0.0000
vn -0.9593 -0.2315 -0.1612
vn -0.9995 0.0315 0.0000
vn -0.9510 0.0000 -0.3090
vn -0.3061 -0.1364 -0.9421
vn -0.1431 -0.2315 -0.9622
vn -0.3088 0.0315 -0.9506
vn 0.0000 0.0000 -1.0000
vn 0.8014 -0.1364 -0.5823
vn 0.8709 -0.2315 -0.4335
vn 0.8086 0.0315 -0.5875
vn 0.9510 0.0000 -0.3090
vn 0.4053 0.6558 0.6368
vn 0.2279 0.6754 0.7013
vn 0.2764 0.4472 0.8506
vn 0.5022 0.5059 0.7013
vn 0.6882 0.5257 0.5000
vn 0.4557 0.7373 0.4986
vn 0.1625 0.8506 0.5000
vn -0.4804 0.6558 0.5823
vn -0.5966 0.6754 0.4334
vn -0.7236 0.4472 0.5257
vn -0.5118 0.5059 0.6943
vn -0.2629 0.5257 0.8090
vn -0.3334 0.7373 0.5875
vn -0.4253 0.8506 0.3090
vn -0.7022 0.6558 -0.2770
vn -0.5966 0.6754 -0.4334
vn -0.7236 0.4472 -0.5257
vn -0.8185 0.5059 -0.2722
vn -0.8506 0.5257 0.0000
vn -0.6618 0.7373 -0.1356
vn -0.4253 0.8506 -0.3090
vn 0.0464 0.6558 -0.7534
vn 0.2279 0.6754 -0.7013
vn 0.2764 0.4472 -0.8506
vn 0.0060 0.5059 -0.8626
vn -0.2629 0.5257 -0.8090
vn -0.0756 0.7373 -0.6713
vn 0.1625 0.8506 -0.5000
vn 0.7309 0.6558 -0.1887
vn 0.7374 0.6754 0.0000
vn 0.8944 0.4472 0.0000
vn 0.8222 0.5059 -0.2609
vn 0.6882 0.5257 -0.5000
vn 0.6150 0.7373 -0.2793
vn 0.5257 0.8506 0.0000
vn 0.2597 0.9471 -0.1887
vn 0.2743 0.9616 0.0000
vn 0.3844 0.8799 -0.2793
vn 0.0847 0.9616 -0.2609
vn 0.0000 1.0000 0.0000
vn 0.4911 0.7946 -0.3568
vn 0.4557 0.7373 -0.4986
vn 0.4053 0.6558 -0.6368
vn 0.5022 0.5059 -0.7013
vn -0.0992 0.9471 -0.3053
vn -0.1468 0.8799 -0.4519
vn -0.2219 0.9616 -0.1612
vn -0.1876 0.7946 -0.5773
vn -0.3334 0.7373 -0.5875
vn -0.4804 0.6558 -0.5823
vn -0.5118 0.5059 -0.6943
vn -0.3210 0.9471 0.0000
vn -0.4752 0.8799 0.0000
vn -0.2219 0.9616 0.1612
vn -0.6070 0.7946 0.0000
vn -0.6618 0.7373 0.1356
vn -0.7022 0.6558 0.2770
vn -0.8185 0.5059 0.2722
vn -0.0992 0.9471 0.3053
vn -0.1468 0.8799 0.4519
vn 0.0847 0.9616 0.2609
vn -0.1876 0.7946 0.5773
vn -0.0756 0.7373 0.6713
vn 0.0464 0.6558 0.7534
vn 0.0060 0.5059 0.8626
vn 0.2597 0.9471 0.1887
vn 0.3844 0.8799 0.2793
vn 0.4911 0.7946 0.3568
vn 0.6150 0.7373 0.2793
vn 0.7309 0.6558 0.1887
vn 0.8222 0.5059 0.2609
vn 0.8914 0.3348 -0.3053
vn 0.9593 0.2315 -0.1612
vn 0.8527 0.2622 -0.4519
vn 0.7946 0.1876 -0.5773
vn 0.6933 0.2622 -0.6713
vn 0.5658 0.3348 -0.7534
vn 0.4498 0.2315 -0.8626
vn -0.0149 0.3348 -0.9421
vn 0.1431 0.2315 -0.9622
vn -0.1663 0.2622 -0.9506
vn -0.3035 0.1876 -0.9341
vn -0.4242 0.2622 -0.8668
vn -0.5417 0.3348 -0.7710
vn -0.6814 0.2315 -0.6943
vn -0.9006 0.3348 -0.2770
vn -0.8709 0.2315 -0.4335
vn -0.9554 0.2622 -0.1356
vn -0.9822 0.1876 0.0000
vn -0.9554 0.2622 0.1356
vn -0.9006 0.3348 0.2770
vn -0.8709 0.2315 0.4335
vn -0.5417 0.3348 0.7710
vn -0.6814 0.2315 0.6943
vn -0.4242 0.2622 0.8668
vn -0.3035 0.1876 0.9341
vn -0.1663 0.2622 0.9506
vn -0.0149 0.3348 0.9421
vn 0.1431 0.2315 0.9622
vn 0.5658 0.3348 0.7534
vn 0.4498 0.2315 0.8626
vn 0.6933 0.2622 0.6713
vn 0.7946 0.1876 0.5773
vn 0.8527 0.2622 0.4519
vn 0.8914 0.3348 0.3053
vn 0.9593 0.2315 0.1612
vn 0.3061 0.1364 -0.9421
vn 0.3088 -0.0315 -0.9506
vn 0.3035 -0.1876 -0.9341
vn 0.1663 -0.2622 -0.9506
vn 0.0149 -0.3348 -0.9421
vn -0.0060 -0.5059 -0.8626
vn -0.8014 0.1364 -0.5823
vn -0.8086 -0.0315 -0.5875
vn -0.7946 -0.1876 -0.5773
vn -0.8527 -0.2622 -0.4519
vn -0.8914 -0.3348 -0.3053
vn -0.8222 -0.5059 -0.2609
vn -0.8014 0.1364 0.5823
vn -0.8086 -0.0315 0.5875
vn -0.7946 -0.1876 0.5773
vn -0.6933 -0.2622 0.6713
vn -0.5658 -0.3348 0.7534
vn -0.5022 -0.5059 0.7013
vn 0.3061 0.1364 0.9421
vn 0.3088 -0.0315 0.9506
vn 0.3035 -0.1876 0.9341
vn 0.4242 -0.2622 0.8668
vn 0.5417 -0.3348 0.7710
vn 0.5118 -0.5059 0.6943
vn 0.9906 0.1364 0.0000
vn 0.9995 -0.0315 0.0000
vn 0.9822 -0.1876 0.0000
vn 0.9554 -0.2622 -0.1356
vn 0.9006 -0.3348 -0.2770
vn 0.8185 -0.5059 -0.2722
vn 0.4804 -0.6558 -0.5823
vn 0.5966 -0.6754 -0.4334
vn 0.3334 -0.7373 -0.5875
vn 0.1876 -0.7946 -0.5773
vn 0.0756 -0.7373 -0.6713
vn -0.0464 -0.6558 -0.7534
vn -0.2279 -0.6754 -0.7013
vn -0.4053 -0.6558 -0.6368
vn -0.4557 -0.7373 -0.4986
vn -0.4911 -0.7946 -0.3568
vn -0.6150 -0.7373 -0.2793
vn -0.7309 -0.6558 -0.1887
vn -0.7374 -0.6754 0.0000
vn -0.7309 -0.6558 0.1887
vn -0.6150 -0.7373 0.2793
vn -0.4911 -0.7946 0.3568
vn -0.4557 -0.7373 0.4986
vn -0.4053 -0.6558 0.6368
vn -0.2279 -0.6754 0.7013
vn 0.7022 -0.6558 -0.2770
vn 0.6618 -0.7373 -0.1356
vn 0.6070 -0.7946 0.0000
vn 0.4752 -0.8799 0.0000
vn 0.3210 -0.9471 0.0000
vn -0.0464 -0.6558 0.7534
vn 0.0756 -0.7373 0.6713
vn 0.1876 -0.7946 0.5773
vn 0.3334 -0.7373 0.5875
vn 0.4804 -0.6558 0.5823
usemtl None
s 1
f 1//1 81//2 201//3 112//4
f 1//1 112//4 214//5 199//6
f 1//1 199//6 213//7 81//2
f 2//8 84//9 202//10 82//11
f 2//8 82//11 214//5 196//12
f 2//8 196//12 216//13 84//9
f 3//14 86//15 201//3 81//2
f 3//14 81//2 213//7 193//16
f 3//14 193//16 218//17 86//15
f 4//18 88//19 201//3 86//15
f 4//18 86//15 218//17 190//20
f 4//18 190//20 220//21 88//19
f 5//22 115//23 201//3 88//19
f 5//22 88//19 220//21 187//24
f 5//22 187//24 217//25 115//23
f 6//26 91//27 202//10 84//9
f 6//26 84//9 216//13 184//28
f 6//26 184//28 223//29 91//27
f 7//30 93//31 203//32 83//33
f 7//30 83//33 215//34 181//35
f 7//30 181//35 225//36 93//31
f 8//37 95//38 204//39 87//40
f 8//37 87//40 219//41 178//42
f 8//37 178//42 227//43 95//38
f 9//44 97//45 205//46 89//47
f 9//44 89//47 221//48 175//49
f 9//44 175//49 229//50 97//45
f 10//51 99//52 206//53 90//54
f 10//51 90//54 222//55 172//56
f 10//51 172//56 231//57 99//52
f 11//58 124//59 202//10 91//27
f 11//58 91//27 223//29 169//60
f 11//58 169//60 226//61 124//59
f 12//62 126//63 203//32 93//31
f 12//62 93//31 225//36 166//64
f 12//62 166//64 228//65 126//63
f 13//66 128//67 204//39 95//38
f 13//66 95//38 227//43 163//68
f 13//66 163//68 230//69 128//67
f 14//70 130//71 205//46 97//45
f 14//70 97//45 229//50 160//72
f 14//70 160//72 232//73 130//71
f 15//74 122//75 206//53 99//52
f 15//74 99//52 231//57 157//76
f 15//74 157//76 224//77 122//75
f 16//78 106//79 207//80 101//81
f 16//78 101//81 233//82 154//83
f 16//78 154//83 238//84 106//79
f 17//85 108//86 208//87 102//88
f 17//85 102//88 234//89 151//90
f 17//85 151//90 240//91 108//86
f 18//92 109//93 209//94 103//95
f 18//92 103//95 235//96 148//97
f 18//92 148//97 241//98 109//93
f 19//99 110//100 210//101 104//102
f 19//99 104//102 236//103 145//104
f 19//99 145//104 242//105 110//100
f 20//106 137//107 211//108 105//109
f 20//106 105//109 237//110 142//111
f 20//106 142//111 239//112 137//107
f 21//113 107//114 239//112 141//115
f 21//113 141//115 242//105 140//116
f 21//113 140//116 212//117 107//114
f 22//118 141//115 239//112 142//111
f 22//118 142//111 237//110 143//119
f 22//118 143//119 242//105 141//115
f 23//120 143//119 237//110 135//121
f 23//120 135//121 210//101 110//100
f 23//120 110//100 242//105 143//119
f 24//122 140//116 242//105 144//123
f 24//122 144//123 241//98 139//124
f 24//122 139//124 212//117 140//116
f 25//125 144//123 242//105 145//104
f 25//125 145//104 236//103 146//126
f 25//125 146//126 241//98 144//123
f 26//127 146//126 236//103 134//128
f 26//127 134//128 209//94 109//93
f 26//127 109//93 241//98 146//126
f 27//129 139//124 241//98 147//130
f 27//129 147//130 240//91 138//131
f 27//129 138//131 212//117 139//124
f 28//132 147//130 241//98 148//97
f 28//132 148//97 235//96 149//133
f 28//132 149//133 240//91 147//130
f 29//134 149//133 235//96 133//135
f 29//134 133//135 208//87 108//86
f 29//134 108//86 240//91 149//133
f 30//136 138//131 240//91 150//137
f 30//136 150//137 238//84 136//138
f 30//136 136//138 212//117 138//131
f 31//139 150//137 240//91 151//90
f 31//139 151//90 234//89 152//140
f 31//139 152//140 238//84 150//137
f 32//141 152//140 234//89 132//142
f 32//141 132//142 207//80 106//79
f 32//141 106//79 238//84 152//140
f 33//143 136//138 238//84 153//144
f 33//143 153//144 239//112 107//114
f 33//143 107//114 212//117 136//138
f 34//145 153//144 238//84 154//83
f 34//145 154//83 233//82 155//146
f 34//145 155//146 239//112 153//144
f 35//147 155//146 233//82 131//148
f 35//147 131//148 211//108 137//107
f 35//147 137//107 239//112 155//146
f 36//149 92//150 224//77 156//151
f 36//149 156//151 237//110 105//109
f 36//149 105//109 211//108 92//150
f 37//152 156//151 224//77 157//76
f 37//152 157//76 231//57 158//153
f 37//152 158//153 237//110 156//151
f 38//154 158//153 231//57 129//155
f 38//154 129//155 210//101 135//121
f 38//154 135//121 237//110 158//153
f 39//156 100//157 232//73 159//158
f 39//156 159//158 236//103 104//102
f 39//156 104//102 210//101 100//157
f 40//159 159//158 232//73 160//72
f 40//159 160//72 229//50 161//160
f 40//159 161//160 236//103 159//158
f 41//161 161//160 229//50 127//162
f 41//161 127//162 209//94 134//128
f 41//161 134//128 236//103 161//160
f 42//163 98//164 230//69 162//165
f 42//163 162//165 235//96 103//95
f 42//163 103//95 209//94 98//164
f 43//166 162//165 230//69 163//68
f 43//166 163//68 227//43 164//167
f 43//166 164//167 235//96 162//165
f 44//168 164//167 227//43 125//169
f 44//168 125//169 208//87 133//135
f 44//168 133//135 235//96 164//167
f 45//170 96//171 228//65 165//172
f 45//170 165//172 234//89 102//88
f 45//170 102//88 208//87 96//171
f 46//173 165//172 228//65 166//64
f 46//173 166//64 225//36 167//174
f 46//173 167//174 234//89 165//172
f 47//175 167//174 225//36 123//176
f 47//175 123//176 207//80 132//142
f 47//175 132//142 234//89 167//174
f 48//177 94//178 226//61 168//179
f 48//177 168//179 233//82 101//81
f 48//177 101//81 207//80 94//178
f 49//180 168//179 226//61 169//60
f 49//180 169//60 223//29 170//181
f 49//180 170//181 233//82 168//179
f 50//182 170//181 223//29 121//183
f 50//182 121//183 211//108 131//148
f 50//182 131//148 233//82 170//181
f 51//184 129//155 231//57 171//185
f 51//184 171//185 232//73 100//157
f 51//184 100//157 210//101 129//155
f 52//186 171//185 231//57 172//56
f 52//186 172//56 222//55 173//187
f 52//186 173//187 232//73 171//185
f 53//188 173//187 222//55 120//189
f 53//188 120//189 205//46 130//71
f 53//188 130//71 232//73 173//187
f 54//190 127//162 229//50 174//191
f 54//190 174//191 230//69 98//164
f 54//190 98//164 209//94 127//162
f 55//192 174//191 229//50 175//49
f 55//192 175//49 221//48 176//193
f 55//192 176//193 230//69 174//191
f 56//194 176//193 221//48 119//195
f 56//194 119//195 204//39 128//67
f 56//194 128//67 230//69 176//193
f 57//196 125//169 227//43 177//197
f 57//196 177//197 228//65 96//171
f 57//196 96//171 208//87 125//169
f 58//198 177//197 227//43 178//42
f 58//198 178//42 219//41 179//199
f 58//198 179//199 228//65 177//197
f 59//200 179//199 219//41 117//201
f 59//200 117//201 203//32 126//63
f 59//200 126//63 228//65 179//199
f 60//202 123//176 225//36 180//203
f 60//202 180//203 226//61 94//178
f 60//202 94//178 207//80 123//176
f 61//204 180//203 225//36 181//35
f 61//204 181//35 215//34 182//205
f 61//204 182//205 226//61 180//203
f 62//206 182//205 215//34 113//207
f 62//206 113//207 202//10 124//59
f 62//206 124//59 226//61 182//205
f 63//208 121//183 223//29 183//209
f 63//208 183//209 224//77 92//150
f 63//208 92//150 211//108 121//183
f 64//210 183//209 223//29 184//28
f 64//210 184//28 216//13 185//211
f 64//210 185//211 224//77 183//209
f 65//212 185//211 216//13 114//213
f 65//212 114//213 206//53 122//75
f 65//212 122//75 224//77 185//211
f 66//214 85//215 217//25 186//216
f 66//214 186//216 222//55 90//54
f 66//214 90//54 206//53 85//215
f 67//217 186//216 217//25 187//24
f 67//217 187//24 220//21 188//218
f 67//217 188//218 222//55 186//216
f 68//219 188//218 220//21 118//220
f 68//219 118//220 205//46 120//189
f 68//219 120//189 222//55 188//218
f 69//221 118//220 220//21 189//222
f 69//221 189//222 221//48 89//47
f 69//221 89//47 205//46 118//220
f 70//223 189//222 220//21 190//20
f 70//223 190//20 218//17 191//224
f 70//223 191//224 221//48 189//222
f 71//225 191//224 218//17 116//226
f 71//225 116//226 204//39 119//195
f 71//225 119//195 221//48 191//224
f 72//227 116//226 218//17 192//228
f 72//227 192//228 219//41 87//40
f 72//227 87//40 204//39 116//226
f 73//229 192//228 218//17 193//16
f 73//229 193//16 213//7 194//230
f 73//229 194//230 219//41 192//228
f 74//231 194//230 213//7 111//232
f 74//231 111//232 203//32 117//201
f 74//231 117//201 219//41 194//230
f 75//233 114//213 216//13 195//234
f 75//233 195//234 217//25 85//215
f 75//233 85//215 206//53 114//213
f 76//235 195//234 216//13 196//12
f 76//235 196//12 214//5 197//236
f 76//235 197//236 217//25 195//234
f 77//237 197//236 214//5 112//4
f 77//237 112//4 201//3 115//23
f 77//237 115//23 217//25 197//236
f 78//238 111//232 213//7 198//239
f 78//238 198//239 215//34 83//33
f 78//238 83//33 203//32 111//232
f 79//240 198//239 213//7 199//6
f 79//240 199//6 214//5 200//241
f 79//240 200//241 215//34 198//239
f 80//242 200//241 214//5 82//11
f 80//242 82//11 202//10 113//207
f 80//242 113//207 215//34 200//241
